<?xml version="1.0" encoding="utf-8"?>
<!-- Generator: Adobe Illustrator 24.0.3, SVG Export Plug-In . SVG Version: 6.00 Build 0)  -->
<svg version="1.1" id="레이어_1" xmlns="http://www.w3.org/2000/svg" xmlns:xlink="http://www.w3.org/1999/xlink" x="0px"
	 y="0px" viewBox="0 0 1024 1024" style="enable-background:new 0 0 1024 1024;" xml:space="preserve">
<style type="text/css">
	.st0{fill:none;stroke:#000000;stroke-width:29;stroke-miterlimit:10;}
</style>
<path class="st0" d="M-134.4,677.7h-150.7c-42.2,160.9-188.7,279.5-362.8,279.5c-207.1,0-375-167.9-375-375
	c0-203.3,161.7-368.8,363.5-374.9l77.7-155.1"/>
<path class="st0" d="M-138.3,511.6h-141.1c-22.6-119-101.5-218-207.8-268.5l64.6-133.6"/>
<path class="st0" d="M-487.8,765.5c51-44.6,83.3-110.2,83.3-183.3c0-134.4-109-243.4-243.4-243.4c-53.8,0-103.5,17.5-143.8,47
	l94.8,103.2"/>
<path class="st0" d="M-980.4,408.6l105,86.9c-10.3,26.9-15.9,56.1-15.9,86.7c0,134.4,109,243.4,243.4,243.4c1.1,0,2.2,0,3.3,0"/>
<circle class="st0" cx="-649.5" cy="582.9" r="106"/>
<line class="st0" x1="-279.5" y1="511.6" x2="-413.1" y2="515.4"/>
<polyline class="st0" points="817,54.4 817,177.1 853.6,177.1 853.6,446.9 992.6,446.9 "/>
<polyline class="st0" points="606.9,54.4 606.9,177.1 108.8,177.1 108.8,922 853.6,922 853.6,650.2 992.6,650.2 "/>
<path class="st0" d="M255.1,372.9"/>
<polyline class="st0" points="472,775.7 255.1,775.7 255.1,523 "/>
<polyline class="st0" points="255.1,372.9 255.1,323.4 707.3,323.4 707.3,775.7 631.6,775.7 "/>
<rect x="402.1" y="470.4" class="st0" width="158.2" height="158.2"/>
<line class="st0" x1="853.6" y1="446.9" x2="705.8" y2="446.9"/>
<line class="st0" x1="254.7" y1="537" x2="107.6" y2="537"/>
<line class="st0" x1="561" y1="539.2" x2="704.9" y2="539.2"/>
</svg>
